HIERARCHY
ROOT Hips
{
	OFFSET -14.64140 90.27770 -84.91600
	CHANNELS 6 Xposition Yposition Zposition Zrotation Xrotation Yrotation
	JOINT Spine
	{
		OFFSET 0.00000 13.20850 -1.60436
		CHANNELS 3 Zrotation Xrotation Yrotation
		JOINT Spine1
		{
			OFFSET 0.00000 8.61716 0.00000
			CHANNELS 3 Zrotation Xrotation Yrotation
			JOINT Spine2
			{
				OFFSET 0.00000 8.61717 0.00000
				CHANNELS 3 Zrotation Xrotation Yrotation
				JOINT Spine3
				{
					OFFSET 0.00000 8.61717 0.00000
					CHANNELS 3 Zrotation Xrotation Yrotation
					JOINT Neck
					{
						OFFSET 0.00000 11.07920 1.10792
						CHANNELS 3 Zrotation Xrotation Yrotation
						JOINT Neck1
						{
							OFFSET 0.00000 7.08032 0.00000
							CHANNELS 3 Zrotation Xrotation Yrotation
							JOINT Head
							{
								OFFSET 0.00000 7.08031 0.00000
								CHANNELS 3 Zrotation Xrotation Yrotation
								End site
								{
									OFFSET 0.00000 0.00000 0.00000
								}
							}
						}
					}
					JOINT RightShoulder
					{
						OFFSET -0.01000 7.91373 5.19711
						CHANNELS 3 Zrotation Xrotation Yrotation
						JOINT RightArm
						{
							OFFSET -18.41580 0.00000 0.00000
							CHANNELS 3 Zrotation Xrotation Yrotation
							JOINT RightForeArm
							{
								OFFSET -29.11090 0.00000 0.00000
								CHANNELS 3 Zrotation Xrotation Yrotation
								JOINT RightHand
								{
									OFFSET -24.65040 0.00000 0.00000
									CHANNELS 3 Zrotation Xrotation Yrotation
									JOINT RightHandThumb1
									{
										OFFSET -5.35114 -0.85590 3.97906
										CHANNELS 3 Zrotation Xrotation Yrotation
										JOINT RightHandThumb2
										{
											OFFSET -4.52789 0.00000 0.00000
											CHANNELS 3 Zrotation Xrotation Yrotation
											JOINT RightHandThumb3
											{
												OFFSET -2.46976 0.00000 0.00000
												CHANNELS 3 Zrotation Xrotation Yrotation
												End site
												{
													OFFSET 0.00000 0.00000 0.00000
												}
											}
										}
									}
									JOINT RightHandIndex1
									{
										OFFSET -14.26970 0.00000 2.88139
										CHANNELS 3 Zrotation Xrotation Yrotation
										JOINT RightHandIndex2
										{
											OFFSET -5.48836 0.00000 0.00000
											CHANNELS 3 Zrotation Xrotation Yrotation
											JOINT RightHandIndex3
											{
												OFFSET -3.01859 0.00000 0.00000
												CHANNELS 3 Zrotation Xrotation Yrotation
												End site
												{
													OFFSET 0.00000 0.00000 0.00000
												}
											}
										}
									}
									JOINT RightHandMiddle1
									{
										OFFSET -14.26970 0.00000 -0.09147
										CHANNELS 3 Zrotation Xrotation Yrotation
										JOINT RightHandMiddle2
										{
											OFFSET -6.17441 0.00000 0.00000
											CHANNELS 3 Zrotation Xrotation Yrotation
											JOINT RightHandMiddle3
											{
												OFFSET -3.56743 0.00000 0.00000
												CHANNELS 3 Zrotation Xrotation Yrotation
												End site
												{
													OFFSET 0.00000 0.00000 0.00000
												}
											}
										}
									}
									JOINT RightHandRing1
									{
										OFFSET -12.69180 0.00000 -3.06433
										CHANNELS 3 Zrotation Xrotation Yrotation
										JOINT RightHandRing2
										{
											OFFSET -5.62556 0.00000 0.00000
											CHANNELS 3 Zrotation Xrotation Yrotation
											JOINT RightHandRing3
											{
												OFFSET -3.56744 0.00000 0.00000
												CHANNELS 3 Zrotation Xrotation Yrotation
												End site
												{
													OFFSET 0.00000 0.00000 0.00000
												}
											}
										}
									}
									JOINT RightHandPinky1
									{
										OFFSET -11.11390 0.00000 -6.03719
										CHANNELS 3 Zrotation Xrotation Yrotation
										JOINT RightHandPinky2
										{
											OFFSET -4.52789 0.00000 0.00000
											CHANNELS 3 Zrotation Xrotation Yrotation
											JOINT RightHandPinky3
											{
												OFFSET -2.46976 0.00000 0.00000
												CHANNELS 3 Zrotation Xrotation Yrotation
												End site
												{
													OFFSET 0.00000 0.00000 0.00000
												}
											}
										}
									}
								}
							}
						}
					}
					JOINT LeftShoulder
					{
						OFFSET 0.01000 7.91373 5.19711
						CHANNELS 3 Zrotation Xrotation Yrotation
						JOINT LeftArm
						{
							OFFSET 18.41580 0.00000 0.00000
							CHANNELS 3 Zrotation Xrotation Yrotation
							JOINT LeftForeArm
							{
								OFFSET 29.11090 0.00000 0.00000
								CHANNELS 3 Zrotation Xrotation Yrotation
								JOINT LeftHand
								{
									OFFSET 24.65040 0.00000 0.00000
									CHANNELS 3 Zrotation Xrotation Yrotation
									JOINT LeftHandThumb1
									{
										OFFSET 5.35114 -0.85590 3.97906
										CHANNELS 3 Zrotation Xrotation Yrotation
										JOINT LeftHandThumb2
										{
											OFFSET 4.52789 0.00000 0.00000
											CHANNELS 3 Zrotation Xrotation Yrotation
											JOINT LeftHandThumb3
											{
												OFFSET 2.46977 0.00000 0.00000
												CHANNELS 3 Zrotation Xrotation Yrotation
												End site
												{
													OFFSET 0.00000 0.00000 0.00000
												}
											}
										}
									}
									JOINT LeftHandIndex1
									{
										OFFSET 14.26970 0.00000 2.88139
										CHANNELS 3 Zrotation Xrotation Yrotation
										JOINT LeftHandIndex2
										{
											OFFSET 5.48836 0.00000 0.00000
											CHANNELS 3 Zrotation Xrotation Yrotation
											JOINT LeftHandIndex3
											{
												OFFSET 3.01859 0.00000 0.00000
												CHANNELS 3 Zrotation Xrotation Yrotation
												End site
												{
													OFFSET 0.00000 0.00000 0.00000
												}
											}
										}
									}
									JOINT LeftHandMiddle1
									{
										OFFSET 14.26970 0.00000 -0.09147
										CHANNELS 3 Zrotation Xrotation Yrotation
										JOINT LeftHandMiddle2
										{
											OFFSET 6.17440 0.00000 0.00000
											CHANNELS 3 Zrotation Xrotation Yrotation
											JOINT LeftHandMiddle3
											{
												OFFSET 3.56744 0.00000 0.00000
												CHANNELS 3 Zrotation Xrotation Yrotation
												End site
												{
													OFFSET 0.00000 0.00000 0.00000
												}
											}
										}
									}
									JOINT LeftHandRing1
									{
										OFFSET 12.69180 0.00000 -3.06433
										CHANNELS 3 Zrotation Xrotation Yrotation
										JOINT LeftHandRing2
										{
											OFFSET 5.62556 0.00000 0.00000
											CHANNELS 3 Zrotation Xrotation Yrotation
											JOINT LeftHandRing3
											{
												OFFSET 3.56744 0.00000 0.00000
												CHANNELS 3 Zrotation Xrotation Yrotation
												End site
												{
													OFFSET 0.00000 0.00000 0.00000
												}
											}
										}
									}
									JOINT LeftHandPinky1
									{
										OFFSET 11.11390 0.00000 -6.03719
										CHANNELS 3 Zrotation Xrotation Yrotation
										JOINT LeftHandPinky2
										{
											OFFSET 4.52789 0.00000 0.00000
											CHANNELS 3 Zrotation Xrotation Yrotation
											JOINT LeftHandPinky3
											{
												OFFSET 2.46976 0.00000 0.00000
												CHANNELS 3 Zrotation Xrotation Yrotation
												End site
												{
													OFFSET 0.00000 0.00000 0.00000
												}
											}
										}
									}
								}
							}
						}
					}
					JOINT pCube4
					{
						OFFSET 0.00000 10.91090 1.10792
						CHANNELS 3 Zrotation Xrotation Yrotation
						End site
						{
							OFFSET 0.00000 0.00000 0.00000
						}
					}
				}
			}
		}
	}
	JOINT RightUpLeg
	{
		OFFSET -9.98441 0.00000 0.00000
		CHANNELS 3 Zrotation Xrotation Yrotation
		JOINT RightLeg
		{
			OFFSET 0.00000 -42.11790 0.00000
			CHANNELS 3 Zrotation Xrotation Yrotation
			JOINT RightFoot
			{
				OFFSET 0.00000 -45.00020 -0.00001
				CHANNELS 3 Zrotation Xrotation Yrotation
				JOINT RightForeFoot
				{
					OFFSET 0.00000 -3.74820 0.00000
					CHANNELS 3 Zrotation Xrotation Yrotation
					JOINT RightToeBase
					{
						OFFSET 0.00000 0.06325 14.43120
						CHANNELS 3 Zrotation Xrotation Yrotation
						End site
						{
							OFFSET 0.00000 0.00000 0.00000
						}
					}
				}
			}
		}
	}
	JOINT LeftUpLeg
	{
		OFFSET 9.98441 0.00000 0.00000
		CHANNELS 3 Zrotation Xrotation Yrotation
		JOINT LeftLeg
		{
			OFFSET 0.00000 -42.11800 0.00000
			CHANNELS 3 Zrotation Xrotation Yrotation
			JOINT LeftFoot
			{
				OFFSET 0.00000 -45.00070 0.00000
				CHANNELS 3 Zrotation Xrotation Yrotation
				JOINT LeftForeFoot
				{
					OFFSET 0.00000 -3.74824 0.00000
					CHANNELS 3 Zrotation Xrotation Yrotation
					JOINT LeftToeBase
					{
						OFFSET 0.00000 0.06325 14.43110
						CHANNELS 3 Zrotation Xrotation Yrotation
						End site
						{
							OFFSET 0.00000 0.00000 0.00000
						}
					}
				}
			}
		}
	}
}
MOTION
Frames: 4
Frame Time: 0.050000
0.0013223354391891423 -0.03260510396521574 -0.0448505906318191 -0.018660233436446728 0.011136829408181234 0.03877466670509788 -3.274765136342294 0.9600851620105889 -0.7666428319414395 -0.9622978409975755 3.502554966801872 0.3459073769651727 -1.118135380986696 -1.8006807784936492 -3.543229714432401 0.4529657933191488 0.4743458018072367 -1.195704512127146 -0.6177101665618394 11.596928976348021 0.5269859960146039 -0.21537045421979953 -1.0767540488194574 1.1428029024717705 -0.33416625562195845 -16.82139314764273 0.06488044031406823 -4.269061084947079 1.545252259502442 -12.911608623512008 70.86921904885602 20.210314007677347 10.052016746465714 17.052775831646436 3.783594249592929 73.18655233240322 16.2075675698071 -0.39082699807078486 -3.590597487976867 4.513251381747333 -0.09089650637935029 -1.5872898862998015 -0.00869598826883246 0.04763502007319359 -56.26163625467741 -0.03599783582855311 -0.02716793790986043 -56.21913973877641 -38.776978847104694 -0.017133758298720207 0.04037104245494409 0.039100568148132966 0.002915837370253341 -0.026429663730462034 -0.017134164784194873 -0.007982224365273944 -0.020983124196839592 -36.699363676706504 0.03650840273697022 -0.02401439291695163 0.03678820245333006 -0.03980349668271045 0.031092239245776615 0.032796814470958426 0.044780586071187685 -0.009229374535991906 -19.78641814930389 0.04317529024193002 -0.0032038134025748717 0.030050505099294522 0.04598298135191136 -0.0010013791175962408 -0.048424280549022876 -0.006646694565190967 -0.04665369495923983 24.024669305855156 0.0018528231354863949 -0.01917663095592397 28.85218589088482 0.0027240630673802378 -0.026204696758363632 28.86497781908504 -0.00633684480812751 0.02711586332018005 8.466800300881472 1.867395031016462 9.99555028692748 -64.064921533916 21.246455654218053 -29.038144765370397 -44.979193800023836 0.34741427528490826 -74.81234448507705 -11.706114354606177 -4.280676058815082 3.5226517173488077 -0.4952775153199636 0.08266476323633637 -8.150820841017898 0.030089250998339364 -0.02791956628827466 44.58404161278537 0.010909140186602708 -0.013384622675544987 44.51960218317136 12.41476690372444 -0.04792868903753979 -0.04329337903623816 0.04170115296517116 0.019873073279832086 -0.04061116261637545 0.01088186943890474 0.0006082880522650747 -0.014835012568246403 11.129909457481961 -0.012671207439662251 -0.02815992902217417 0.04707492503783906 0.03816487753056051 0.03736039893962404 -0.01491741238781878 0.004062795396600963 -0.02209705343030865 4.796888291606173 -0.029733851850900838 -0.021814770993872818 -0.040191923570056 -0.04151411278936048 -0.008661514135493311 0.0008856966399589006 0.02302041996730655 0.018939931273379004 -5.591551277941293 0.04206716220595155 -0.005526149572807301 -6.750272979570843 0.04286797755358828 0.014344791157908201 -6.736473393717664 0.03684993619511682 -0.003326491152338912 -0.043732845866882614 0.033687749946594896 0.019191405468784697 8.034487211581482 3.535298132375887 -19.241542042012505 -0.028943026711388098 10.379684989607627 0.0004818184779047611 -5.653215020581535 -15.612918848456792 3.175675434361588 0.04159040271444118 -0.02711832446921364 0.00922380243563425 0.03240563182664496 4.6911997166743955 0.0423961456157169 12.434311388102191 -8.240595516699168 6.8677233384858365 -0.010877686696875008 46.33279657827555 -0.021548430414565892 -4.318183262026152 -14.714775686612073 -3.813156322672627 -0.042229006167014346 -0.02627370191462267 0.030453129573507327 0.034794433652004846 -10.767614843761049 0.004572883620666126 
0.023226563913627804 -0.00306820207924763 -0.011836676544012246 0.0017767505923250715 -0.017636340212975613 0.036213645979925824 -3.3492475108106947 0.8658301264439874 -0.7707276868833969 -0.9665870471373261 3.503711042048425 0.3381619718586138 -1.1245533432632053 -1.7466034691257306 -3.643546939500893 0.4036084922476516 0.522214782332105 -1.1662444086320902 -0.6512850648635823 11.560752993196102 0.641189269921266 -0.25569242472648385 -1.0316177544914984 1.3229128701522668 -0.3402295059543285 -16.764307259796283 0.1349694266262703 -4.117640679588913 1.577677087452168 -12.90026334045498 71.02304252174068 20.21378975648692 10.301772388803021 19.736128457020182 3.77265862011804 73.88967688744474 16.20570938080882 -0.35601417040813366 -3.6231691638385266 4.534211424519474 -0.14631238163700794 -1.553764732288481 -0.011257180857984397 -0.007130510932340654 -56.22461450970523 0.035407168930470974 0.035109267800739447 -56.27567757768973 -38.74596654555161 0.042591130643816096 -0.044472882377564124 0.00427382432808811 -0.017143704458611544 -0.003948144061021061 0.04098345280865526 -0.033957634468709225 0.005106402814496033 -36.65554841217612 0.013948511425799988 0.04076816943222895 -0.00796231823776685 0.030206782195823456 0.03262429327938464 0.03116234269579394 -0.015629312624988442 -0.02618696634827933 -19.79441680520106 0.041007578481847745 -0.007641993634123234 0.023128639310405468 0.025926248162354636 0.04793697564154044 -0.011023210595954753 0.035229591501491686 -0.014450981570444414 24.067010138339217 0.029080023486095834 0.040196162337010344 28.87807955125747 0.01555825690922853 0.027215242739745234 28.883285403632893 0.035753705076087695 0.048601991235467566 8.513479868693095 1.9156832827495476 10.020993636065112 -63.94636521960245 21.076256463525816 -29.470928750324944 -48.664204186822005 1.6165868370378371 -76.50318052126633 -12.068175861147788 -4.284473138424506 3.55154948671624 -0.43477751650995294 0.04175061907524409 -8.091282524053888 -0.010682742332286733 -0.04656048789418581 44.615448356487995 -0.0007379061486722093 -0.03869351774804794 44.55996230149308 12.466729005495415 -0.0025362860150372297 0.035927246557669656 0.039619810702776787 0.04494158167080572 0.015180628852749326 -0.03685334141827264 0.03767274001323815 -0.04731441505591597 11.13838953356979 0.047740330977323824 -0.028085616948345125 -0.02504258560754458 0.04239135461495023 0.029284283260133152 0.015858348281881665 0.011251986990418465 0.03129295197697866 4.741894088283482 -0.016462529399917346 -0.014544299255423205 0.01914840841477817 -0.04932131721356533 0.028161400325216582 -0.008533763513526773 -0.026190989876994576 -0.02805664949886097 -5.576279827841826 -3.0197582549506473e-05 -0.010549555367244888 -6.725304295037589 0.017489194393419224 0.0029229743334136 -6.735270333826778 0.015209195959452974 -0.026033303020249435 -0.030315203094938233 -0.019871846785175132 -0.0026020467403221224 8.069495146728098 3.5098694915444155 -19.266337105223418 0.04563780834908606 10.426897833948004 0.03286718297419651 -5.658741542722531 -15.654361955506877 3.189664712768532 -0.0476487663290992 0.040616612581728655 -0.008436706097185168 -0.032121779004691695 4.718618620445085 0.034799637456442524 12.470773523230871 -8.249869019108901 6.836051361637985 0.018235247189875053 46.37318661697578 0.035361490068800815 -4.282268697126101 -14.785257368409345 -3.797990313849819 0.017729150190227888 -0.03209715385349636 -0.018123967878350845 0.023492096291123463 -10.745154313340219 -0.01751715155495209 
0.010706094325591636 0.0065602787137011 0.02861815454308892 0.0021188957234762845 0.04150517474356083 0.023195798301395332 -3.3792714230430736 0.8487878065804199 -0.8172924112026136 -0.9322996006645312 3.5246906983772837 0.3120885336990081 -1.131669644643018 -1.7790250908472685 -3.605852327686656 0.44105365115513057 0.5067119543155278 -1.231735133550153 -0.7409304390628085 11.507553318131407 0.6363660667090345 -0.2002950198180844 -1.0393854052155598 1.3094230301617586 -0.3200162650688612 -16.746488542985656 0.1307302759231992 -4.193607593496026 1.529651714773146 -12.941542796141878 71.13671363254537 19.794418112400752 10.513972450421317 20.833659016976448 3.459438297004547 73.31694438528065 16.39917333917904 -0.3433150946590566 -3.8170549013160304 4.530122197896356 -0.09833307843651526 -1.5759002812686158 -0.010709326854810373 0.01235625469221773 -56.23558723051941 0.011845393589818592 0.03937106315638044 -56.199831437215565 -38.752832683408975 0.008691000802115937 -0.008747326588550663 0.02467807608537571 -0.039157841259643104 -0.028207504755652275 -0.04776535347530065 0.031173385136886136 0.006470577615203409 -36.71917038898797 -0.008370605139235423 0.013146440838230399 0.031316992684459095 -0.009570066816963553 -0.046333567101786655 0.017355948423812 -0.04599686048158852 0.035424880697215055 -19.753795000348408 -0.03911147395336288 -0.01725001277762939 -0.024338969543538057 0.027078328179819134 -0.04378681593664733 -0.006608501682352432 -0.03344289647953413 -0.04741140624018747 24.02504811298961 -0.007511668972800762 0.03799096240011775 28.898664262625914 0.015414288854562733 -0.04885016652165608 28.89252335684054 -0.0030939263267772657 0.02433612309649715 8.536712345223279 1.8443745566587508 9.95341923009329 -63.89029651038269 21.119271055692746 -29.416594289700328 -50.913334775330256 1.75387071855227 -77.52658147898349 -12.295853731111892 -4.62066461026197 3.8033838628125536 -0.4495457223984949 0.09984879792664597 -8.133162965704193 -0.00995451767058235 0.031036090719718256 44.58622071511085 0.003753122942410331 -0.00029896565275723725 44.608558909765556 12.459687271229583 -0.016743721887164494 0.03992173568350428 -0.011216036670195918 0.044089088803813875 -0.02790022622923015 -0.03464154748297536 -0.0235674642262568 -0.021369803611953495 11.076062369088854 -0.04992686657004203 -0.030024980088976982 -0.031549246030519375 -0.018261950308479605 -0.014948232822086108 0.0035921442394097215 -0.0026138216515115033 -0.03654793440743691 4.785465688420286 -0.012359126251234878 0.009879931649542003 0.017002472206984587 -0.024856076211035093 -0.014901572874688788 0.025225605857392475 -0.036439278292786335 -0.04429543069229074 -5.5932123943896865 0.04044555709624254 0.033711941738374517 -6.713984986086834 0.0055681889927213235 -0.016702410528778515 -6.739845141888673 0.011481148792846734 0.01958087125679344 0.02442456557650552 0.0118010830140225 -0.007253638816286749 8.024101612912002 3.5364703804414557 -19.23131068485043 -0.017972819044993243 10.353065192423173 0.01709624470471731 -5.57676396500698 -15.637977538294242 3.1759478603270757 0.039407259642799626 -0.025390524940541448 0.030275170424213887 -0.01674185456647157 4.690737229035901 -0.0015341382508383204 12.48961153549828 -8.269584936259916 6.842575243897602 -0.005308844556417333 46.33313487362083 0.018923305313070172 -4.345112294867866 -14.736271622460876 -3.8735030213230743 0.008226674651545224 -0.034196733693295726 0.04338012814748186 0.0012003066825800005 -10.725700750034992 -0.04927425900889993 
-0.023030341935223894 -0.002166439754874245 -0.02647648102121707 0.018340180220579753 -0.046540591761178536 0.0420498399505815 -3.3247944239383718 0.8698621112826662 -0.8273704805586772 -0.9893078153859114 3.554777783803511 0.34350217044855236 -1.1264842104976587 -1.7537583163938424 -3.5934719924848832 0.43801226671176513 0.4322506144755643 -1.1602710146368183 -0.6663779091085019 11.511265670161386 0.6029276808410867 -0.2200842520291588 -0.9712055393866617 1.2192512017725783 -0.34063307751477945 -16.674184925413766 0.07420753040862518 -4.252008710192407 1.5531857666957478 -12.90787597014465 71.24638961099595 19.103116814571262 10.644956201187979 21.46364663002752 2.6890166381163167 72.16379459493523 16.726442043100334 -0.34979140046955337 -4.00120549792956 4.517577685382152 -0.13758599595075882 -1.625436908394208 0.03430224940159499 0.015165377048341318 -56.25382217354681 0.004895320785730497 0.04691418486146848 -56.18604396165193 -38.75552110803069 0.038833992588352254 -0.0015497064063219556 0.012155280258883603 -0.03111320540136821 0.03411931907740562 -0.03461144205083455 0.005321296704843188 -0.04504609460534667 -36.672135208535856 0.048582695069401924 0.0015169338592429427 0.03334576446710904 0.045133397698324036 0.01176385026744185 0.02648113383630054 0.0407687329097594 0.04480064323650737 -19.760115710294773 0.0071159878407442674 -0.0376553088028671 0.02341492577033183 0.037409253684718896 0.028093127826986787 0.00449123660127098 0.014876580606837105 0.021853105238989815 24.033120778661072 0.04457916994479599 -0.04488823633822307 28.890992653562048 0.04088390351775693 0.012085070113373352 28.91172130307715 -0.0007894975177799227 0.036159123617277925 8.530087960658639 1.8340900283728678 10.022178713542992 -63.816814737404215 21.161112509854554 -29.23372276130809 -51.80832433366617 1.0640262063738493 -78.14747356922953 -12.174923330966386 -4.963088027996638 3.9998437797624917 -0.43221484961733725 0.08665645348146143 -8.1092479730257 0.012223538625623413 -0.03786905988964584 44.520771814957335 -0.01560192050402613 -0.03694417066678339 44.54251177343089 12.414172040993188 -0.031623079118644246 0.0041893284269069525 -0.0010272730451439123 0.007556084134899972 0.01963396471308321 -0.0053343364068921826 0.00425762853736035 -0.02984776818969336 11.080208245597575 -0.023332776825127466 -0.04780712275331123 0.032977712321277525 0.0023460175977157082 -0.0015255663684551831 -0.03146749434630617 0.021726045639903564 0.037720744263200844 4.78816155498644 -0.03152829845149213 -0.010933409498826447 0.02012669235858391 0.03885499211493199 -0.02618361713938061 -0.028180401794190364 -0.04825127525230793 -0.034221138612476394 -5.561766593032916 0.03638879409644665 0.026140387242206117 -6.7501628617119644 -0.026788061511916164 0.026436173652575327 -6.691487517658752 0.04675041491623954 0.038653896771836664 0.0010975388877370695 -0.04045272680149056 0.043187297252555115 8.068821344946006 3.5108140746050487 -19.20591903412672 0.0028476401792206026 10.350460314533935 0.061253494425374005 -5.659931162908007 -15.661944908624921 3.1460077927501477 -0.02057874523431072 0.0015493612782639167 0.030914077082609914 0.02762871681525566 4.6900867327206495 -0.008344805105781738 12.461220954452616 -8.244210882627705 6.871131914854908 -0.026763235888589802 46.409653144874795 0.006356387540055264 -4.29248520293573 -14.778045201565332 -3.813694852335401 0.01928595301762753 0.03466515439456078 0.0379535559421992 0.0461277396357114 -10.79319694289696 0.02924166649064196 
